<svg width="1024" height="1024" viewBox="0 0 1024 1024" xmlns="http://www.w3.org/2000/svg" role="img" aria-labelledby="title" style="--hair:#161b25;--shade:#090b12">
  <title>Jake original silhouette</title>
  <defs>
    <linearGradient id="bg-enhypen-jake" x1="0" y1="0" x2="1" y2="1">
      <stop offset="0" stop-color="#e5eeff"/>
      <stop offset="1" stop-color="#f8f4e8"/>
    </linearGradient>
  </defs>
  <rect width="1024" height="1024" fill="url(#bg-enhypen-jake)"/>
  <ellipse cx="512" cy="462" rx="232" ry="264" fill="#ffffff" opacity=".2"/>
  <circle cx="-39" cy="-23" r="1" fill="#8da4d6" opacity=".14"/><circle cx="-105" cy="-64" r="2" fill="#8da4d6" opacity=".14"/><circle cx="212" cy="-171" r="-3" fill="#8da4d6" opacity=".14"/><circle cx="-8" cy="-152" r="4" fill="#8da4d6" opacity=".14"/><circle cx="-36" cy="112" r="-5" fill="#8da4d6" opacity=".14"/>
  <g transform="rotate(5.4 512 512)">
    <path d="M202 1024c25-171 86-284 182-337 31-18 67-27 108-27 96 0 169 46 219 138 35 65 58 141 69 226H202Z" fill="#161b25"/>
    <path d="M512 252c92 0 158 60 178 158 17 83-2 157-55 223-33 41-75 61-126 61-54 0-98-22-132-66-48-63-61-138-37-226 26-100 83-150 172-150Z" fill="#161b25"/>
    <path d="M363 407c14-103 73-163 177-178 85 11 139 68 162 172 10 74 2 145-24 214-53-2-99-21-139-57-43 38-92 58-148 59-33-66-42-136-28-210Z" fill="var(--hair)"/><path d="M385 439c45 23 96 20 153-9 45 35 93 51 143 48" fill="none" stroke="var(--shade)" stroke-width="5" opacity=".28"/>
    <path d="M414 368c42 48 100 78 174 91" fill="none" stroke="#ffffff" stroke-width="4" opacity="0.10"/>
    <path d="M464 667l-44 30 49 13 42-33-47-10Zm94 0 44 30-49 13-42-33 47-10Z" fill="#8da4d6" opacity=".72"/>
  </g>
</svg>
