<svg width="1024" height="1024" viewBox="0 0 1024 1024" xmlns="http://www.w3.org/2000/svg" role="img" aria-labelledby="title" style="--hair:#161b25;--shade:#090b12">
  <title>Jay original silhouette</title>
  <defs>
    <linearGradient id="bg-enhypen-jay" x1="0" y1="0" x2="1" y2="1">
      <stop offset="0" stop-color="#e5eeff"/>
      <stop offset="1" stop-color="#f8f4e8"/>
    </linearGradient>
  </defs>
  <rect width="1024" height="1024" fill="url(#bg-enhypen-jay)"/>
  <ellipse cx="512" cy="462" rx="220" ry="250" fill="#ffffff" opacity=".2"/>
  <circle cx="112" cy="85" r="-5" fill="#8da4d6" opacity=".14"/><circle cx="-151" cy="-110" r="-4" fill="#8da4d6" opacity=".14"/><circle cx="-54" cy="167" r="4" fill="#8da4d6" opacity=".14"/><circle cx="-171" cy="132" r="2" fill="#8da4d6" opacity=".14"/><circle cx="139" cy="130" r="4" fill="#8da4d6" opacity=".14"/>
  <g transform="rotate(-1.8 512 512)">
    <path d="M292 1024c22-176 68-291 139-345 31-23 68-34 111-32 80 4 141 45 183 122 34 63 56 149 65 255H292Z" fill="#161b25"/>
    <path d="M503 278c74-3 131 40 154 112 20 65 10 130-30 195-31 50-75 79-130 86-59 7-106-12-140-57-25-33-34-74-27-123-31-8-51-23-58-45-7-23 5-42 35-57 14-67 80-108 196-111Z" fill="#161b25"/>
    <path d="M363 407c14-103 73-163 177-178 85 11 139 68 162 172 10 74 2 145-24 214-53-2-99-21-139-57-43 38-92 58-148 59-33-66-42-136-28-210Z" fill="var(--hair)"/><path d="M385 439c45 23 96 20 153-9 45 35 93 51 143 48" fill="none" stroke="var(--shade)" stroke-width="5" opacity=".28"/>
    <path d="M414 368c42 48 100 78 174 91" fill="none" stroke="#ffffff" stroke-width="4" opacity="0.08"/>
    
  </g>
</svg>
