<svg width="1024" height="1024" viewBox="0 0 1024 1024" xmlns="http://www.w3.org/2000/svg" role="img" aria-labelledby="title" style="--hair:#1b171b;--shade:#090b12">
  <title>Jennie original silhouette</title>
  <defs>
    <linearGradient id="bg-blackpink-jennie" x1="0" y1="0" x2="1" y2="1">
      <stop offset="0" stop-color="#ffdce9"/>
      <stop offset="1" stop-color="#f7f1f4"/>
    </linearGradient>
  </defs>
  <rect width="1024" height="1024" fill="url(#bg-blackpink-jennie)"/>
  <ellipse cx="512" cy="462" rx="225" ry="256" fill="#ffffff" opacity=".2"/>
  <circle cx="-41" cy="37" r="1" fill="#ff91bd" opacity=".14"/><circle cx="-235" cy="45" r="4" fill="#ff91bd" opacity=".14"/><circle cx="-259" cy="-138" r="4" fill="#ff91bd" opacity=".14"/><circle cx="258" cy="87" r="-2" fill="#ff91bd" opacity=".14"/><circle cx="-2" cy="206" r="3" fill="#ff91bd" opacity=".14"/>
  <g transform="rotate(-5.4 512 512)">
    <path d="M215 1024c25-171 86-284 182-337 31-18 67-27 108-27 96 0 169 46 219 138 35 65 58 141 69 226H215Z" fill="#1b171b"/>
    <path d="M512 252c92 0 158 60 178 158 17 83-2 157-55 223-33 41-75 61-126 61-54 0-98-22-132-66-48-63-61-138-37-226 26-100 83-150 172-150Z" fill="#1b171b"/>
    <path d="M356 397c16-85 70-139 162-162 82 5 142 45 181 120-54 18-111 20-171 6-55 39-112 51-172 36Z" fill="var(--hair)"/><path d="M411 279c48 58 112 95 193 110" fill="none" stroke="var(--shade)" stroke-width="5" opacity=".32"/>
    <path d="M414 368c42 48 100 78 174 91" fill="none" stroke="#ffffff" stroke-width="4" opacity="0.09"/>
    <path d="M464 667l-44 30 49 13 42-33-47-10Zm94 0 44 30-49 13-42-33 47-10Z" fill="#ff91bd" opacity=".72"/>
  </g>
</svg>
