<svg width="1024" height="1024" viewBox="0 0 1024 1024" xmlns="http://www.w3.org/2000/svg" role="img" aria-labelledby="title" style="--hair:#2a1d2a;--shade:#090b12">
  <title>Chaeyoung original silhouette</title>
  <defs>
    <linearGradient id="bg-twice-chaeyoung" x1="0" y1="0" x2="1" y2="1">
      <stop offset="0" stop-color="#ffe8f1"/>
      <stop offset="1" stop-color="#e9f7ff"/>
    </linearGradient>
  </defs>
  <rect width="1024" height="1024" fill="url(#bg-twice-chaeyoung)"/>
  <ellipse cx="512" cy="462" rx="253" ry="287" fill="#ffffff" opacity=".2"/>
  <circle cx="424" cy="243" r="4" fill="#f5a8c8" opacity=".14"/><circle cx="538" cy="452" r="6" fill="#f5a8c8" opacity=".14"/><circle cx="748" cy="255" r="8" fill="#f5a8c8" opacity=".14"/><circle cx="644" cy="479" r="6" fill="#f5a8c8" opacity=".14"/><circle cx="566" cy="414" r="5" fill="#f5a8c8" opacity=".14"/>
  <g transform="rotate(5.4 512 512)">
    <path d="M310 1024c22-176 68-291 139-345 31-23 68-34 111-32 80 4 141 45 183 122 34 63 56 149 65 255H310Z" fill="#2a1d2a"/>
    <path d="M503 278c74-3 131 40 154 112 20 65 10 130-30 195-31 50-75 79-130 86-59 7-106-12-140-57-25-33-34-74-27-123-31-8-51-23-58-45-7-23 5-42 35-57 14-67 80-108 196-111Z" fill="#2a1d2a"/>
    <path d="M352 402c15-95 75-153 180-174 84 6 144 48 181 125-56 23-121 29-195 18-55 36-110 47-166 31Z" fill="var(--hair)"/><path d="M402 284c43 60 107 97 192 111" fill="none" stroke="var(--shade)" stroke-width="5" opacity=".32"/>
    <path d="M414 368c42 48 100 78 174 91" fill="none" stroke="#ffffff" stroke-width="4" opacity="0.17"/>
    <circle cx="405" cy="360" r="20" fill="#f5a8c8" opacity=".78"/><path d="M392 359h26" stroke="#fff" stroke-width="5" stroke-linecap="round" opacity=".7"/>
  </g>
</svg>
