<svg width="1024" height="1024" viewBox="0 0 1024 1024" xmlns="http://www.w3.org/2000/svg" role="img" aria-labelledby="title" style="--hair:#2a1d2a;--shade:#090b12">
  <title>Tzuyu original silhouette</title>
  <defs>
    <linearGradient id="bg-twice-tzuyu" x1="0" y1="0" x2="1" y2="1">
      <stop offset="0" stop-color="#ffe8f1"/>
      <stop offset="1" stop-color="#e9f7ff"/>
    </linearGradient>
  </defs>
  <rect width="1024" height="1024" fill="url(#bg-twice-tzuyu)"/>
  <ellipse cx="512" cy="462" rx="215" ry="244" fill="#ffffff" opacity=".2"/>
  <circle cx="-248" cy="135" r="0" fill="#f5a8c8" opacity=".14"/><circle cx="-66" cy="-54" r="0" fill="#f5a8c8" opacity=".14"/><circle cx="-238" cy="171" r="0" fill="#f5a8c8" opacity=".14"/><circle cx="196" cy="185" r="-4" fill="#f5a8c8" opacity=".14"/><circle cx="-10" cy="54" r="2" fill="#f5a8c8" opacity=".14"/>
  <g transform="rotate(3.6 512 512)">
    <path d="M190 1024c13-166 57-283 132-351 34-31 77-45 130-42 87 5 154 49 200 132 35 64 58 151 70 261H190Z" fill="#2a1d2a"/>
    <path d="M536 278c-75-3-132 40-155 112-20 65-10 130 30 195 31 50 75 79 130 86 59 7 106-12 140-57 25-33 34-74 27-123 31-8 51-23 58-45 7-23-5-42-35-57-14-67-80-108-195-111Z" fill="#2a1d2a"/>
    <path d="M363 385c22-94 80-146 173-156 86 12 142 61 169 147-65 0-121-21-169-63-50 44-108 68-173 72Z" fill="var(--hair)"/><path d="M692 470c72 24 106 77 103 159-3 51-24 84-64 99 7-72-15-125-66-158Z" fill="var(--hair)"/>
    <path d="M414 368c42 48 100 78 174 91" fill="none" stroke="#ffffff" stroke-width="4" opacity="0.13"/>
    <path d="M409 698c75 41 151 41 228 0" fill="none" stroke="#f5a8c8" stroke-width="16" stroke-linecap="round" opacity=".55"/>
  </g>
</svg>
