<svg width="1024" height="1024" viewBox="0 0 1024 1024" xmlns="http://www.w3.org/2000/svg" role="img" aria-labelledby="title" style="--hair:#18221d;--shade:#090b12">
  <title>Beomgyu original silhouette</title>
  <defs>
    <linearGradient id="bg-txt-beomgyu" x1="0" y1="0" x2="1" y2="1">
      <stop offset="0" stop-color="#e6f8e8"/>
      <stop offset="1" stop-color="#eef1ff"/>
    </linearGradient>
  </defs>
  <rect width="1024" height="1024" fill="url(#bg-txt-beomgyu)"/>
  <ellipse cx="512" cy="462" rx="238" ry="270" fill="#ffffff" opacity=".2"/>
  <circle cx="267" cy="354" r="10" fill="#97d6a7" opacity=".14"/><circle cx="714" cy="459" r="13" fill="#97d6a7" opacity=".14"/><circle cx="575" cy="439" r="8" fill="#97d6a7" opacity=".14"/><circle cx="492" cy="464" r="5" fill="#97d6a7" opacity=".14"/><circle cx="547" cy="413" r="4" fill="#97d6a7" opacity=".14"/>
  <g transform="rotate(-3.6 512 512)">
    <path d="M243 1024c25-171 86-284 182-337 31-18 67-27 108-27 96 0 169 46 219 138 35 65 58 141 69 226H243Z" fill="#18221d"/>
    <path d="M512 252c92 0 158 60 178 158 17 83-2 157-55 223-33 41-75 61-126 61-54 0-98-22-132-66-48-63-61-138-37-226 26-100 83-150 172-150Z" fill="#18221d"/>
    <path d="M356 398c11-88 59-145 144-171 78-18 147 2 207 60 30 29 47 69 52 119-72-5-138-32-199-82-42 48-110 73-204 74Z" fill="var(--hair)"/><path d="M360 407c-24 69-13 139 34 210" fill="none" stroke="var(--hair)" stroke-width="34" stroke-linecap="round"/><path d="M704 423c34 73 27 143-21 211" fill="none" stroke="var(--hair)" stroke-width="34" stroke-linecap="round"/>
    <path d="M414 368c42 48 100 78 174 91" fill="none" stroke="#ffffff" stroke-width="4" opacity="0.19"/>
    
  </g>
</svg>
