<svg width="1024" height="1024" viewBox="0 0 1024 1024" xmlns="http://www.w3.org/2000/svg" role="img" aria-labelledby="title" style="--hair:#18221d;--shade:#090b12">
  <title>Hueningkai original silhouette</title>
  <defs>
    <linearGradient id="bg-txt-hueningkai" x1="0" y1="0" x2="1" y2="1">
      <stop offset="0" stop-color="#e6f8e8"/>
      <stop offset="1" stop-color="#eef1ff"/>
    </linearGradient>
  </defs>
  <rect width="1024" height="1024" fill="url(#bg-txt-hueningkai)"/>
  <ellipse cx="512" cy="462" rx="217" ry="247" fill="#ffffff" opacity=".2"/>
  <circle cx="270" cy="285" r="5" fill="#97d6a7" opacity=".14"/><circle cx="389" cy="638" r="8" fill="#97d6a7" opacity=".14"/><circle cx="274" cy="293" r="12" fill="#97d6a7" opacity=".14"/><circle cx="520" cy="271" r="9" fill="#97d6a7" opacity=".14"/><circle cx="615" cy="637" r="6" fill="#97d6a7" opacity=".14"/>
  <g transform="rotate(5.4 512 512)">
    <path d="M206 1024c24-172 81-287 169-346 35-24 76-36 121-36 93 0 164 48 213 143 32 63 53 143 63 239H206Z" fill="#18221d"/>
    <path d="M521 260c88 0 151 57 169 151 15 77-2 148-51 212-33 43-78 64-136 64-57 0-103-22-137-66-46-60-58-133-36-220 24-94 88-141 191-141Z" fill="#18221d"/>
    <path d="M512 229c-76 27-130 86-162 178 67-8 121-39 162-92 42 53 97 84 166 92-19-96-74-156-166-178Z" fill="var(--hair)"/><path d="M512 235c-8 79 13 148 63 207" fill="none" stroke="var(--shade)" stroke-width="6" opacity=".36"/>
    <path d="M414 368c42 48 100 78 174 91" fill="none" stroke="#ffffff" stroke-width="4" opacity="0.11"/>
    <path d="M729 304l15 40 40 15-40 15-15 40-15-40-40-15 40-15 15-40Z" fill="#97d6a7" opacity=".7"/>
  </g>
</svg>
