<svg width="1024" height="1024" viewBox="0 0 1024 1024" xmlns="http://www.w3.org/2000/svg" role="img" aria-labelledby="title" style="--hair:#241b20;--shade:#090b12">
  <title>Chaewon original silhouette</title>
  <defs>
    <linearGradient id="bg-le-sserafim-chaewon" x1="0" y1="0" x2="1" y2="1">
      <stop offset="0" stop-color="#fff0ef"/>
      <stop offset="1" stop-color="#f7f2df"/>
    </linearGradient>
  </defs>
  <rect width="1024" height="1024" fill="url(#bg-le-sserafim-chaewon)"/>
  <ellipse cx="512" cy="462" rx="243" ry="275" fill="#ffffff" opacity=".2"/>
  <circle cx="422" cy="333" r="9" fill="#f0aaa5" opacity=".14"/><circle cx="733" cy="431" r="6" fill="#f0aaa5" opacity=".14"/><circle cx="707" cy="437" r="10" fill="#f0aaa5" opacity=".14"/><circle cx="769" cy="385" r="6" fill="#f0aaa5" opacity=".14"/><circle cx="711" cy="644" r="4" fill="#f0aaa5" opacity=".14"/>
  <g transform="rotate(3.6 512 512)">
    <path d="M256 1024c24-172 81-287 169-346 35-24 76-36 121-36 93 0 164 48 213 143 32 63 53 143 63 239H256Z" fill="#241b20"/>
    <path d="M521 260c88 0 151 57 169 151 15 77-2 148-51 212-33 43-78 64-136 64-57 0-103-22-137-66-46-60-58-133-36-220 24-94 88-141 191-141Z" fill="#241b20"/>
    <path d="M363 385c22-94 80-146 173-156 86 12 142 61 169 147-65 0-121-21-169-63-50 44-108 68-173 72Z" fill="var(--hair)"/><path d="M692 470c72 24 106 77 103 159-3 51-24 84-64 99 7-72-15-125-66-158Z" fill="var(--hair)"/>
    <path d="M414 368c42 48 100 78 174 91" fill="none" stroke="#ffffff" stroke-width="4" opacity="0.17"/>
    <path d="M409 698c75 41 151 41 228 0" fill="none" stroke="#f0aaa5" stroke-width="16" stroke-linecap="round" opacity=".55"/>
  </g>
</svg>
