<svg width="1024" height="1024" viewBox="0 0 1024 1024" xmlns="http://www.w3.org/2000/svg" role="img" aria-labelledby="title" style="--hair:#241b20;--shade:#090b12">
  <title>Eunchae original silhouette</title>
  <defs>
    <linearGradient id="bg-le-sserafim-eunchae" x1="0" y1="0" x2="1" y2="1">
      <stop offset="0" stop-color="#fff0ef"/>
      <stop offset="1" stop-color="#f7f2df"/>
    </linearGradient>
  </defs>
  <rect width="1024" height="1024" fill="url(#bg-le-sserafim-eunchae)"/>
  <ellipse cx="512" cy="462" rx="243" ry="275" fill="#ffffff" opacity=".2"/>
  <circle cx="-80" cy="-133" r="-4" fill="#f0aaa5" opacity=".14"/><circle cx="-240" cy="34" r="2" fill="#f0aaa5" opacity=".14"/><circle cx="130" cy="176" r="-5" fill="#f0aaa5" opacity=".14"/><circle cx="47" cy="27" r="4" fill="#f0aaa5" opacity=".14"/><circle cx="-159" cy="202" r="1" fill="#f0aaa5" opacity=".14"/>
  <g transform="rotate(-1.8 512 512)">
    <path d="M311 1024c22-176 68-291 139-345 31-23 68-34 111-32 80 4 141 45 183 122 34 63 56 149 65 255H311Z" fill="#241b20"/>
    <path d="M503 278c74-3 131 40 154 112 20 65 10 130-30 195-31 50-75 79-130 86-59 7-106-12-140-57-25-33-34-74-27-123-31-8-51-23-58-45-7-23 5-42 35-57 14-67 80-108 196-111Z" fill="#241b20"/>
    <path d="M353 407c17-102 79-163 185-181 76 6 129 46 160 119-81-2-153 24-216 78-44 38-87 53-129 45 0-21 0-41 0-61Z" fill="var(--hair)"/><path d="M496 251c64 89 130 136 198 141" fill="none" stroke="var(--shade)" stroke-width="5" opacity=".3"/>
    <path d="M414 368c42 48 100 78 174 91" fill="none" stroke="#ffffff" stroke-width="4" opacity="0.22"/>
    <path d="M692 620c36 20 61 52 74 96" fill="none" stroke="#f0aaa5" stroke-width="15" stroke-linecap="round" opacity=".72"/><circle cx="684" cy="612" r="15" fill="#f0aaa5" opacity=".82"/>
  </g>
</svg>
