<svg width="1024" height="1024" viewBox="0 0 1024 1024" xmlns="http://www.w3.org/2000/svg" role="img" aria-labelledby="title" style="--hair:#241b20;--shade:#090b12">
  <title>Kazuha original silhouette</title>
  <defs>
    <linearGradient id="bg-le-sserafim-kazuha" x1="0" y1="0" x2="1" y2="1">
      <stop offset="0" stop-color="#fff0ef"/>
      <stop offset="1" stop-color="#f7f2df"/>
    </linearGradient>
  </defs>
  <rect width="1024" height="1024" fill="url(#bg-le-sserafim-kazuha)"/>
  <ellipse cx="512" cy="462" rx="235" ry="267" fill="#ffffff" opacity=".2"/>
  <circle cx="269" cy="374" r="10" fill="#f0aaa5" opacity=".14"/><circle cx="324" cy="355" r="7" fill="#f0aaa5" opacity=".14"/><circle cx="591" cy="642" r="9" fill="#f0aaa5" opacity=".14"/><circle cx="299" cy="424" r="10" fill="#f0aaa5" opacity=".14"/><circle cx="588" cy="568" r="9" fill="#f0aaa5" opacity=".14"/>
  <g transform="rotate(-1.8 512 512)">
    <path d="M277 1024c22-176 68-291 139-345 31-23 68-34 111-32 80 4 141 45 183 122 34 63 56 149 65 255H277Z" fill="#241b20"/>
    <path d="M503 278c74-3 131 40 154 112 20 65 10 130-30 195-31 50-75 79-130 86-59 7-106-12-140-57-25-33-34-74-27-123-31-8-51-23-58-45-7-23 5-42 35-57 14-67 80-108 196-111Z" fill="#241b20"/>
    <path d="M383 378c23-88 78-137 165-148 78 16 132 62 162 138-76 1-135-20-177-64-45 41-95 65-150 74Z" fill="var(--hair)"/><path d="M521 235c21-55 61-79 120-72-16 43-50 77-104 101Z" fill="var(--hair)"/><path d="M654 456c63 32 87 84 73 156" fill="none" stroke="var(--hair)" stroke-width="32" stroke-linecap="round"/>
    <path d="M414 368c42 48 100 78 174 91" fill="none" stroke="#ffffff" stroke-width="4" opacity="0.10"/>
    <path d="M692 620c36 20 61 52 74 96" fill="none" stroke="#f0aaa5" stroke-width="15" stroke-linecap="round" opacity=".72"/><circle cx="684" cy="612" r="15" fill="#f0aaa5" opacity=".82"/>
  </g>
</svg>
