<svg width="1024" height="1024" viewBox="0 0 1024 1024" xmlns="http://www.w3.org/2000/svg" role="img" aria-labelledby="title">
  <title>Danielle editorial silhouette portrait</title>
  <defs>
    <linearGradient id="bg" x1="0" y1="0" x2="1" y2="1">
      <stop offset="0" stop-color="#fff1d9"/>
      <stop offset=".52" stop-color="#fbe4e8"/>
      <stop offset="1" stop-color="#e0f6ff"/>
    </linearGradient>
    <linearGradient id="skin" x1=".2" y1=".1" x2=".8" y2="1">
      <stop offset="0" stop-color="#f1cfba"/>
      <stop offset="1" stop-color="#ce967f"/>
    </linearGradient>
    <linearGradient id="hair" x1=".1" y1="0" x2=".8" y2="1">
      <stop offset="0" stop-color="#4a3030"/>
      <stop offset=".48" stop-color="#2a1d23"/>
      <stop offset="1" stop-color="#120f15"/>
    </linearGradient>
    <filter id="soft" x="-20%" y="-20%" width="140%" height="140%">
      <feDropShadow dx="0" dy="20" stdDeviation="24" flood-color="#422b2f" flood-opacity=".18"/>
    </filter>
  </defs>
  <rect width="1024" height="1024" fill="url(#bg)"/>
  <circle cx="515" cy="448" r="270" fill="#fff7ee" opacity=".5"/>
  <g filter="url(#soft)">
    <path d="M284 1024c24-158 87-276 188-353 36-28 79-42 127-43 91-2 161 42 210 132 35 65 59 153 73 264H284Z" fill="#201720"/>
    <path d="M378 379c16-99 68-166 156-201 83-24 158-7 224 50 39 33 61 81 66 143-82-4-158-33-228-86-56 57-129 88-218 94Z" fill="url(#hair)"/>
    <path d="M421 327c43-54 96-80 159-78 73 4 128 41 164 111 27 94 10 175-51 244-37 42-82 64-135 66-56-5-99-32-129-83-45-75-48-162-8-260Z" fill="url(#skin)"/>
    <path d="M340 442c-26 96-18 192 24 289 43 99 111 160 205 183H337c-31-171-30-329 3-472Z" fill="url(#hair)"/>
    <path d="M724 391c52 88 68 188 47 298-19 101-63 176-132 225h-86c94-99 142-229 143-392l28-131Z" fill="#1a1119"/>
    <path d="M387 461c72-18 139-54 201-109 46 55 108 92 185 112" fill="none" stroke="#5a3b3c" stroke-width="5" stroke-linecap="round" opacity=".34"/>
    <path d="M355 590c-28-8-44-1-49 20-5 24 11 43 49 58" fill="none" stroke="#c18b7d" stroke-width="14" stroke-linecap="round" opacity=".58"/>
    <path d="M684 552c12 44 7 86-15 126" fill="none" stroke="#b77d71" stroke-width="9" stroke-linecap="round" opacity=".48"/>
    <path d="M438 734c55 48 119 70 193 65" fill="none" stroke="#f6e7dc" stroke-width="14" stroke-linecap="round" opacity=".36"/>
  </g>
</svg>
