<svg width="1024" height="1024" viewBox="0 0 1024 1024" xmlns="http://www.w3.org/2000/svg" role="img" aria-labelledby="title">
  <title>Haerin editorial silhouette portrait</title>
  <defs>
    <linearGradient id="bg" x1="0" y1="0" x2="1" y2="1">
      <stop offset="0" stop-color="#e8f2ff"/>
      <stop offset=".55" stop-color="#f7eff6"/>
      <stop offset="1" stop-color="#fff7dd"/>
    </linearGradient>
    <linearGradient id="skin" x1=".3" y1=".1" x2=".7" y2="1">
      <stop offset="0" stop-color="#efd0be"/>
      <stop offset="1" stop-color="#c89483"/>
    </linearGradient>
    <linearGradient id="hair" x1=".3" y1="0" x2=".8" y2="1">
      <stop offset="0" stop-color="#111722"/>
      <stop offset=".55" stop-color="#1d1c28"/>
      <stop offset="1" stop-color="#0b0d14"/>
    </linearGradient>
    <filter id="soft" x="-20%" y="-20%" width="140%" height="140%">
      <feDropShadow dx="0" dy="20" stdDeviation="24" flood-color="#1d2631" flood-opacity=".16"/>
    </filter>
  </defs>
  <rect width="1024" height="1024" fill="url(#bg)"/>
  <circle cx="512" cy="448" r="268" fill="#fffaf4" opacity=".48"/>
  <g filter="url(#soft)">
    <path d="M313 1024c24-165 83-282 177-350 40-29 88-43 144-42 83 2 146 43 188 123 33 64 56 153 68 269H313Z" fill="#141923"/>
    <path d="M357 402c9-117 64-189 165-216 86-12 154 19 204 93 38 57 50 126 35 208-15 83-51 154-108 214H388c-39-87-49-187-31-299Z" fill="url(#hair)"/>
    <path d="M452 317c36-51 83-78 141-80 69 7 119 42 150 107 21 80 8 153-40 218-34 47-79 72-135 74-56-5-99-32-128-82-41-72-37-151 12-237Z" fill="url(#skin)"/>
    <path d="M370 389c46 6 91-3 135-26 45-24 82-58 112-102 35 59 82 103 142 132-2-82-37-142-105-179-70-38-142-37-216 4-61 37-84 94-68 171Z" fill="url(#hair)"/>
    <path d="M390 489c-22 82-11 172 33 271 27 61 68 112 123 154H354c-19-156-7-298 36-425Z" fill="url(#hair)"/>
    <path d="M697 489c26 87 21 176-15 267-25 63-66 116-123 158h123c37-141 42-282 15-425Z" fill="#11131c"/>
    <path d="M406 410c68 1 130-24 187-74 37 50 88 86 154 108" fill="none" stroke="#323641" stroke-width="5" stroke-linecap="round" opacity=".32"/>
    <path d="M691 502c25 3 42 14 50 34 10 25 0 46-29 65" fill="none" stroke="#c69281" stroke-width="12" stroke-linecap="round" opacity=".62"/>
    <path d="M560 492c-7 45 1 82 23 111" fill="none" stroke="#b98276" stroke-width="8" stroke-linecap="round" opacity=".5"/>
  </g>
</svg>
