<svg width="1024" height="1024" viewBox="0 0 1024 1024" xmlns="http://www.w3.org/2000/svg" role="img" aria-labelledby="title">
  <title>Hanni editorial silhouette portrait</title>
  <defs>
    <linearGradient id="bg" x1="0" y1="0" x2="1" y2="1">
      <stop offset="0" stop-color="#f7e5ef"/>
      <stop offset=".55" stop-color="#fff3df"/>
      <stop offset="1" stop-color="#e7f5ff"/>
    </linearGradient>
    <linearGradient id="skin" x1=".2" y1=".1" x2=".8" y2="1">
      <stop offset="0" stop-color="#f2d2bd"/>
      <stop offset="1" stop-color="#d89f8d"/>
    </linearGradient>
    <linearGradient id="hair" x1=".2" y1="0" x2=".8" y2="1">
      <stop offset="0" stop-color="#2b2230"/>
      <stop offset=".5" stop-color="#171622"/>
      <stop offset="1" stop-color="#332736"/>
    </linearGradient>
    <filter id="soft" x="-20%" y="-20%" width="140%" height="140%">
      <feDropShadow dx="0" dy="20" stdDeviation="24" flood-color="#2a2430" flood-opacity=".16"/>
    </filter>
  </defs>
  <rect width="1024" height="1024" fill="url(#bg)"/>
  <circle cx="512" cy="446" r="266" fill="#fffaf5" opacity=".52"/>
  <g filter="url(#soft)">
    <path d="M298 1024c18-152 73-264 164-336 38-30 82-46 132-48 90-4 158 37 204 123 35 66 58 154 70 261H298Z" fill="#1d1d29"/>
    <path d="M357 415c9-104 55-176 139-215 61-28 128-29 201-2 52 38 84 98 96 181 16 114-2 227-55 339H381c-43-99-51-200-24-303Z" fill="url(#hair)"/>
    <path d="M433 356c28-57 74-91 139-102 65 10 113 43 145 100 18 70 7 137-34 201-31 48-72 75-123 79-51-4-91-31-121-80-38-63-40-129-6-198Z" fill="url(#skin)"/>
    <path d="M360 403c47-3 91-19 132-48 42-29 74-68 96-117 49 84 116 139 202 166-4-88-42-155-113-201-72-45-147-45-225 1-69 42-99 108-92 199Z" fill="url(#hair)"/>
    <path d="M401 431c49 9 94 0 136-28 36 35 82 57 137 67" fill="none" stroke="#403647" stroke-width="4" stroke-linecap="round" opacity=".32"/>
    <path d="M407 510c-28 8-43 25-45 51-1 25 13 45 43 59" fill="none" stroke="#c89584" stroke-width="13" stroke-linecap="round" opacity=".65"/>
    <path d="M679 510c27 8 42 25 44 51 2 26-12 46-41 61" fill="none" stroke="#c89584" stroke-width="13" stroke-linecap="round" opacity=".65"/>
    <path d="M457 671c58 36 118 37 181 4" fill="none" stroke="#f2e7df" stroke-width="16" stroke-linecap="round" opacity=".46"/>
  </g>
</svg>
