<svg width="1024" height="1024" viewBox="0 0 1024 1024" xmlns="http://www.w3.org/2000/svg" role="img" aria-labelledby="title">
  <title>Hyein editorial silhouette portrait</title>
  <defs>
    <linearGradient id="bg" x1="0" y1="0" x2="1" y2="1">
      <stop offset="0" stop-color="#e6f8e8"/>
      <stop offset=".52" stop-color="#f8eef9"/>
      <stop offset="1" stop-color="#fff4d7"/>
    </linearGradient>
    <linearGradient id="skin" x1=".2" y1=".1" x2=".8" y2="1">
      <stop offset="0" stop-color="#f1d1bc"/>
      <stop offset="1" stop-color="#d39b86"/>
    </linearGradient>
    <linearGradient id="hair" x1=".2" y1="0" x2=".75" y2="1">
      <stop offset="0" stop-color="#20222d"/>
      <stop offset=".58" stop-color="#11151f"/>
      <stop offset="1" stop-color="#27202a"/>
    </linearGradient>
    <filter id="soft" x="-20%" y="-20%" width="140%" height="140%">
      <feDropShadow dx="0" dy="20" stdDeviation="24" flood-color="#293124" flood-opacity=".16"/>
    </filter>
  </defs>
  <rect width="1024" height="1024" fill="url(#bg)"/>
  <circle cx="516" cy="454" r="270" fill="#fffaf3" opacity=".48"/>
  <g filter="url(#soft)">
    <path d="M250 1024c28-172 94-295 198-369 42-30 91-45 148-43 96 2 169 49 219 140 38 70 63 161 75 272H250Z" fill="#151a23"/>
    <path d="M365 369c21-98 79-160 175-187 93-15 166 21 218 108 31 52 41 112 30 181-61 0-117-18-168-55-49 37-104 56-165 57-37 0-67-9-90-28v-76Z" fill="url(#hair)"/>
    <path d="M437 307c45-53 98-78 158-75 74 6 128 42 161 108 22 82 7 158-45 227-36 48-83 74-140 77-60-4-105-32-137-84-43-72-42-156 3-253Z" fill="url(#skin)"/>
    <path d="M340 452c-24 119-16 238 24 357 18 52 47 91 88 115H319c-23-169-16-326 21-472Z" fill="url(#hair)"/>
    <path d="M748 438c44 113 48 234 13 364-15 57-43 98-82 122H553c96-103 148-242 155-418l40-68Z" fill="#11141d"/>
    <path d="M371 410c76-3 143-31 201-85 51 58 118 94 202 109" fill="none" stroke="#343842" stroke-width="5" stroke-linecap="round" opacity=".34"/>
    <path d="M527 190c-47-35-100-41-160-17 39 33 87 52 143 56l17-39Z" fill="url(#hair)"/>
    <path d="M722 503c28 5 45 19 51 41 7 26-6 47-39 64" fill="none" stroke="#c79280" stroke-width="12" stroke-linecap="round" opacity=".64"/>
    <path d="M465 704c70 40 140 42 210 5" fill="none" stroke="#f5e4d9" stroke-width="15" stroke-linecap="round" opacity=".42"/>
  </g>
</svg>
