<svg width="1024" height="1024" viewBox="0 0 1024 1024" xmlns="http://www.w3.org/2000/svg" role="img" aria-labelledby="title" style="--hair:#1d2230;--shade:#090b12">
  <title>Jeonghan original silhouette</title>
  <defs>
    <linearGradient id="bg-seventeen-jeonghan" x1="0" y1="0" x2="1" y2="1">
      <stop offset="0" stop-color="#edf2ff"/>
      <stop offset="1" stop-color="#fff1f6"/>
    </linearGradient>
  </defs>
  <rect width="1024" height="1024" fill="url(#bg-seventeen-jeonghan)"/>
  <ellipse cx="512" cy="462" rx="250" ry="284" fill="#ffffff" opacity=".2"/>
  <circle cx="626" cy="384" r="5" fill="#9db4f2" opacity=".14"/><circle cx="499" cy="277" r="12" fill="#9db4f2" opacity=".14"/><circle cx="613" cy="559" r="8" fill="#9db4f2" opacity=".14"/><circle cx="692" cy="524" r="11" fill="#9db4f2" opacity=".14"/><circle cx="507" cy="259" r="12" fill="#9db4f2" opacity=".14"/>
  <g transform="rotate(0 512 512)">
    <path d="M232 1024c25-171 86-284 182-337 31-18 67-27 108-27 96 0 169 46 219 138 35 65 58 141 69 226H232Z" fill="#1d2230"/>
    <path d="M512 252c92 0 158 60 178 158 17 83-2 157-55 223-33 41-75 61-126 61-54 0-98-22-132-66-48-63-61-138-37-226 26-100 83-150 172-150Z" fill="#1d2230"/>
    <path d="M356 397c16-85 70-139 162-162 82 5 142 45 181 120-54 18-111 20-171 6-55 39-112 51-172 36Z" fill="var(--hair)"/><path d="M411 279c48 58 112 95 193 110" fill="none" stroke="var(--shade)" stroke-width="5" opacity=".32"/>
    <path d="M414 368c42 48 100 78 174 91" fill="none" stroke="#ffffff" stroke-width="4" opacity="0.17"/>
    <path d="M692 620c36 20 61 52 74 96" fill="none" stroke="#9db4f2" stroke-width="15" stroke-linecap="round" opacity=".72"/><circle cx="684" cy="612" r="15" fill="#9db4f2" opacity=".82"/>
  </g>
</svg>
