<svg width="1024" height="1024" viewBox="0 0 1024 1024" xmlns="http://www.w3.org/2000/svg" role="img" aria-labelledby="title" style="--hair:#1d2230;--shade:#090b12">
  <title>Joshua original silhouette</title>
  <defs>
    <linearGradient id="bg-seventeen-joshua" x1="0" y1="0" x2="1" y2="1">
      <stop offset="0" stop-color="#edf2ff"/>
      <stop offset="1" stop-color="#fff1f6"/>
    </linearGradient>
  </defs>
  <rect width="1024" height="1024" fill="url(#bg-seventeen-joshua)"/>
  <ellipse cx="512" cy="462" rx="227" ry="258" fill="#ffffff" opacity=".2"/>
  <circle cx="260" cy="392" r="9" fill="#9db4f2" opacity=".14"/><circle cx="583" cy="487" r="10" fill="#9db4f2" opacity=".14"/><circle cx="363" cy="651" r="5" fill="#9db4f2" opacity=".14"/><circle cx="596" cy="372" r="13" fill="#9db4f2" opacity=".14"/><circle cx="300" cy="591" r="4" fill="#9db4f2" opacity=".14"/>
  <g transform="rotate(5.4 512 512)">
    <path d="M196 1024c13-166 57-283 132-351 34-31 77-45 130-42 87 5 154 49 200 132 35 64 58 151 70 261H196Z" fill="#1d2230"/>
    <path d="M536 278c-75-3-132 40-155 112-20 65-10 130 30 195 31 50 75 79 130 86 59 7 106-12 140-57 25-33 34-74 27-123 31-8 51-23 58-45 7-23-5-42-35-57-14-67-80-108-195-111Z" fill="#1d2230"/>
    <path d="M374 393c18-94 73-147 164-160 87 12 144 61 171 147-57 0-112-20-164-59-47 44-104 68-171 72Z" fill="var(--hair)"/><path d="M465 249c38-39 83-48 136-27-20 34-57 55-112 62Z" fill="var(--hair)"/><path d="M382 482c-12 92 5 181 50 267" fill="none" stroke="var(--hair)" stroke-width="32" stroke-linecap="round"/><path d="M682 479c10 88-6 176-48 264" fill="none" stroke="var(--hair)" stroke-width="32" stroke-linecap="round"/>
    <path d="M414 368c42 48 100 78 174 91" fill="none" stroke="#ffffff" stroke-width="4" opacity="0.10"/>
    <circle cx="368" cy="548" r="28" fill="none" stroke="#9db4f2" stroke-width="9" opacity=".78"/>
  </g>
</svg>
