<svg width="1024" height="1024" viewBox="0 0 1024 1024" xmlns="http://www.w3.org/2000/svg" role="img" aria-labelledby="title" style="--hair:#1d2230;--shade:#090b12">
  <title>Wonwoo original silhouette</title>
  <defs>
    <linearGradient id="bg-seventeen-wonwoo" x1="0" y1="0" x2="1" y2="1">
      <stop offset="0" stop-color="#edf2ff"/>
      <stop offset="1" stop-color="#fff1f6"/>
    </linearGradient>
  </defs>
  <rect width="1024" height="1024" fill="url(#bg-seventeen-wonwoo)"/>
  <ellipse cx="512" cy="462" rx="253" ry="287" fill="#ffffff" opacity=".2"/>
  <circle cx="701" cy="602" r="4" fill="#9db4f2" opacity=".14"/><circle cx="768" cy="500" r="8" fill="#9db4f2" opacity=".14"/><circle cx="516" cy="258" r="8" fill="#9db4f2" opacity=".14"/><circle cx="290" cy="479" r="12" fill="#9db4f2" opacity=".14"/><circle cx="327" cy="440" r="13" fill="#9db4f2" opacity=".14"/>
  <g transform="rotate(-5.4 512 512)">
    <path d="M242 1024c24-172 81-287 169-346 35-24 76-36 121-36 93 0 164 48 213 143 32 63 53 143 63 239H242Z" fill="#1d2230"/>
    <path d="M521 260c88 0 151 57 169 151 15 77-2 148-51 212-33 43-78 64-136 64-57 0-103-22-137-66-46-60-58-133-36-220 24-94 88-141 191-141Z" fill="#1d2230"/>
    <path d="M374 393c18-94 73-147 164-160 87 12 144 61 171 147-57 0-112-20-164-59-47 44-104 68-171 72Z" fill="var(--hair)"/><path d="M465 249c38-39 83-48 136-27-20 34-57 55-112 62Z" fill="var(--hair)"/><path d="M382 482c-12 92 5 181 50 267" fill="none" stroke="var(--hair)" stroke-width="32" stroke-linecap="round"/><path d="M682 479c10 88-6 176-48 264" fill="none" stroke="var(--hair)" stroke-width="32" stroke-linecap="round"/>
    <path d="M414 368c42 48 100 78 174 91" fill="none" stroke="#ffffff" stroke-width="4" opacity="0.20"/>
    <path d="M666 544c21 22 21 48 0 77" fill="none" stroke="#9db4f2" stroke-width="10" stroke-linecap="round" opacity=".85"/>
  </g>
</svg>
