<svg width="1024" height="1024" viewBox="0 0 1024 1024" xmlns="http://www.w3.org/2000/svg" role="img" aria-labelledby="title" style="--hair:#1d2230;--shade:#090b12">
  <title>Woozi original silhouette</title>
  <defs>
    <linearGradient id="bg-seventeen-woozi" x1="0" y1="0" x2="1" y2="1">
      <stop offset="0" stop-color="#edf2ff"/>
      <stop offset="1" stop-color="#fff1f6"/>
    </linearGradient>
  </defs>
  <rect width="1024" height="1024" fill="url(#bg-seventeen-woozi)"/>
  <ellipse cx="512" cy="462" rx="217" ry="247" fill="#ffffff" opacity=".2"/>
  <circle cx="-24" cy="71" r="-2" fill="#9db4f2" opacity=".14"/><circle cx="-168" cy="-137" r="-1" fill="#9db4f2" opacity=".14"/><circle cx="-121" cy="113" r="-3" fill="#9db4f2" opacity=".14"/><circle cx="80" cy="23" r="-3" fill="#9db4f2" opacity=".14"/><circle cx="105" cy="-35" r="-3" fill="#9db4f2" opacity=".14"/>
  <g transform="rotate(-5.4 512 512)">
    <path d="M210 1024c24-172 81-287 169-346 35-24 76-36 121-36 93 0 164 48 213 143 32 63 53 143 63 239H210Z" fill="#1d2230"/>
    <path d="M521 260c88 0 151 57 169 151 15 77-2 148-51 212-33 43-78 64-136 64-57 0-103-22-137-66-46-60-58-133-36-220 24-94 88-141 191-141Z" fill="#1d2230"/>
    <path d="M346 393c25-102 88-155 190-158 84 12 139 58 164 137-66-1-122-22-169-63-56 44-118 72-185 84Z" fill="var(--hair)"/><path d="M378 480c-17 82-7 158 30 230" fill="none" stroke="var(--hair)" stroke-width="35" stroke-linecap="round"/><path d="M673 479c20 79 12 154-24 224" fill="none" stroke="var(--hair)" stroke-width="35" stroke-linecap="round"/>
    <path d="M414 368c42 48 100 78 174 91" fill="none" stroke="#ffffff" stroke-width="4" opacity="0.12"/>
    <path d="M666 544c21 22 21 48 0 77" fill="none" stroke="#9db4f2" stroke-width="10" stroke-linecap="round" opacity=".85"/>
  </g>
</svg>
