<svg width="1024" height="1024" viewBox="0 0 1024 1024" xmlns="http://www.w3.org/2000/svg" role="img" aria-labelledby="title" style="--hair:#241a31;--shade:#090b12">
  <title>Leeseo original silhouette</title>
  <defs>
    <linearGradient id="bg-ive-leeseo" x1="0" y1="0" x2="1" y2="1">
      <stop offset="0" stop-color="#f7e6ff"/>
      <stop offset="1" stop-color="#fff6df"/>
    </linearGradient>
  </defs>
  <rect width="1024" height="1024" fill="url(#bg-ive-leeseo)"/>
  <ellipse cx="512" cy="462" rx="253" ry="287" fill="#ffffff" opacity=".2"/>
  <circle cx="480" cy="517" r="11" fill="#d8a5ec" opacity=".14"/><circle cx="675" cy="259" r="13" fill="#d8a5ec" opacity=".14"/><circle cx="375" cy="426" r="9" fill="#d8a5ec" opacity=".14"/><circle cx="467" cy="279" r="8" fill="#d8a5ec" opacity=".14"/><circle cx="609" cy="296" r="6" fill="#d8a5ec" opacity=".14"/>
  <g transform="rotate(-3.6 512 512)">
    <path d="M235 1024c13-166 57-283 132-351 34-31 77-45 130-42 87 5 154 49 200 132 35 64 58 151 70 261H235Z" fill="#241a31"/>
    <path d="M536 278c-75-3-132 40-155 112-20 65-10 130 30 195 31 50 75 79 130 86 59 7 106-12 140-57 25-33 34-74 27-123 31-8 51-23 58-45 7-23-5-42-35-57-14-67-80-108-195-111Z" fill="#241a31"/>
    <path d="M346 393c25-102 88-155 190-158 84 12 139 58 164 137-66-1-122-22-169-63-56 44-118 72-185 84Z" fill="var(--hair)"/><path d="M378 480c-17 82-7 158 30 230" fill="none" stroke="var(--hair)" stroke-width="35" stroke-linecap="round"/><path d="M673 479c20 79 12 154-24 224" fill="none" stroke="var(--hair)" stroke-width="35" stroke-linecap="round"/>
    <path d="M414 368c42 48 100 78 174 91" fill="none" stroke="#ffffff" stroke-width="4" opacity="0.16"/>
    <path d="M729 304l15 40 40 15-40 15-15 40-15-40-40-15 40-15 15-40Z" fill="#d8a5ec" opacity=".7"/>
  </g>
</svg>
