<svg width="1024" height="1024" viewBox="0 0 1024 1024" xmlns="http://www.w3.org/2000/svg" role="img" aria-labelledby="title" style="--hair:#221727;--shade:#090b12">
  <title>Lia original silhouette</title>
  <defs>
    <linearGradient id="bg-itzy-lia" x1="0" y1="0" x2="1" y2="1">
      <stop offset="0" stop-color="#fff0d8"/>
      <stop offset="1" stop-color="#f2e9ff"/>
    </linearGradient>
  </defs>
  <rect width="1024" height="1024" fill="url(#bg-itzy-lia)"/>
  <ellipse cx="512" cy="462" rx="230" ry="261" fill="#ffffff" opacity=".2"/>
  <circle cx="699" cy="412" r="9" fill="#f0b36b" opacity=".14"/><circle cx="443" cy="410" r="11" fill="#f0b36b" opacity=".14"/><circle cx="606" cy="331" r="12" fill="#f0b36b" opacity=".14"/><circle cx="756" cy="431" r="5" fill="#f0b36b" opacity=".14"/><circle cx="775" cy="253" r="9" fill="#f0b36b" opacity=".14"/>
  <g transform="rotate(1.8 512 512)">
    <path d="M200 1024c25-171 86-284 182-337 31-18 67-27 108-27 96 0 169 46 219 138 35 65 58 141 69 226H200Z" fill="#221727"/>
    <path d="M512 252c92 0 158 60 178 158 17 83-2 157-55 223-33 41-75 61-126 61-54 0-98-22-132-66-48-63-61-138-37-226 26-100 83-150 172-150Z" fill="#221727"/>
    <path d="M356 397c16-85 70-139 162-162 82 5 142 45 181 120-54 18-111 20-171 6-55 39-112 51-172 36Z" fill="var(--hair)"/><path d="M411 279c48 58 112 95 193 110" fill="none" stroke="var(--shade)" stroke-width="5" opacity=".32"/>
    <path d="M414 368c42 48 100 78 174 91" fill="none" stroke="#ffffff" stroke-width="4" opacity="0.11"/>
    <path d="M464 667l-44 30 49 13 42-33-47-10Zm94 0 44 30-49 13-42-33 47-10Z" fill="#f0b36b" opacity=".72"/>
  </g>
</svg>
