<svg width="1024" height="1024" viewBox="0 0 1024 1024" xmlns="http://www.w3.org/2000/svg" role="img" aria-labelledby="title" style="--hair:#221727;--shade:#090b12">
  <title>Yuna original silhouette</title>
  <defs>
    <linearGradient id="bg-itzy-yuna" x1="0" y1="0" x2="1" y2="1">
      <stop offset="0" stop-color="#fff0d8"/>
      <stop offset="1" stop-color="#f2e9ff"/>
    </linearGradient>
  </defs>
  <rect width="1024" height="1024" fill="url(#bg-itzy-yuna)"/>
  <ellipse cx="512" cy="462" rx="235" ry="267" fill="#ffffff" opacity=".2"/>
  <circle cx="72" cy="95" r="0" fill="#f0b36b" opacity=".14"/><circle cx="-156" cy="-135" r="-1" fill="#f0b36b" opacity=".14"/><circle cx="-119" cy="113" r="0" fill="#f0b36b" opacity=".14"/><circle cx="80" cy="50" r="0" fill="#f0b36b" opacity=".14"/><circle cx="170" cy="-112" r="-1" fill="#f0b36b" opacity=".14"/>
  <g transform="rotate(-3.6 512 512)">
    <path d="M214 1024c25-171 86-284 182-337 31-18 67-27 108-27 96 0 169 46 219 138 35 65 58 141 69 226H214Z" fill="#221727"/>
    <path d="M512 252c92 0 158 60 178 158 17 83-2 157-55 223-33 41-75 61-126 61-54 0-98-22-132-66-48-63-61-138-37-226 26-100 83-150 172-150Z" fill="#221727"/>
    <path d="M383 378c23-88 78-137 165-148 78 16 132 62 162 138-76 1-135-20-177-64-45 41-95 65-150 74Z" fill="var(--hair)"/><path d="M521 235c21-55 61-79 120-72-16 43-50 77-104 101Z" fill="var(--hair)"/><path d="M654 456c63 32 87 84 73 156" fill="none" stroke="var(--hair)" stroke-width="32" stroke-linecap="round"/>
    <path d="M414 368c42 48 100 78 174 91" fill="none" stroke="#ffffff" stroke-width="4" opacity="0.12"/>
    <path d="M464 667l-44 30 49 13 42-33-47-10Zm94 0 44 30-49 13-42-33 47-10Z" fill="#f0b36b" opacity=".72"/>
  </g>
</svg>
