<svg width="1024" height="1024" viewBox="0 0 1024 1024" xmlns="http://www.w3.org/2000/svg" role="img" aria-labelledby="title" style="--hair:#201819;--shade:#090b12">
  <title>Bang Chan original silhouette</title>
  <defs>
    <linearGradient id="bg-stray-kids-bang-chan" x1="0" y1="0" x2="1" y2="1">
      <stop offset="0" stop-color="#ffe7df"/>
      <stop offset="1" stop-color="#f2f4ff"/>
    </linearGradient>
  </defs>
  <rect width="1024" height="1024" fill="url(#bg-stray-kids-bang-chan)"/>
  <ellipse cx="512" cy="462" rx="243" ry="275" fill="#ffffff" opacity=".2"/>
  <circle cx="357" cy="506" r="6" fill="#ef9a7c" opacity=".14"/><circle cx="530" cy="311" r="6" fill="#ef9a7c" opacity=".14"/><circle cx="747" cy="430" r="5" fill="#ef9a7c" opacity=".14"/><circle cx="514" cy="647" r="5" fill="#ef9a7c" opacity=".14"/><circle cx="680" cy="293" r="11" fill="#ef9a7c" opacity=".14"/>
  <g transform="rotate(-5.4 512 512)">
    <path d="M261 1024c24-172 81-287 169-346 35-24 76-36 121-36 93 0 164 48 213 143 32 63 53 143 63 239H261Z" fill="#201819"/>
    <path d="M521 260c88 0 151 57 169 151 15 77-2 148-51 212-33 43-78 64-136 64-57 0-103-22-137-66-46-60-58-133-36-220 24-94 88-141 191-141Z" fill="#201819"/>
    <path d="M512 229c-76 27-130 86-162 178 67-8 121-39 162-92 42 53 97 84 166 92-19-96-74-156-166-178Z" fill="var(--hair)"/><path d="M512 235c-8 79 13 148 63 207" fill="none" stroke="var(--shade)" stroke-width="6" opacity=".36"/>
    <path d="M414 368c42 48 100 78 174 91" fill="none" stroke="#ffffff" stroke-width="4" opacity="0.22"/>
    <path d="M409 698c75 41 151 41 228 0" fill="none" stroke="#ef9a7c" stroke-width="16" stroke-linecap="round" opacity=".55"/>
  </g>
</svg>
