<svg width="1024" height="1024" viewBox="0 0 1024 1024" xmlns="http://www.w3.org/2000/svg" role="img" aria-labelledby="title" style="--hair:#201819;--shade:#090b12">
  <title>Felix original silhouette</title>
  <defs>
    <linearGradient id="bg-stray-kids-felix" x1="0" y1="0" x2="1" y2="1">
      <stop offset="0" stop-color="#ffe7df"/>
      <stop offset="1" stop-color="#f2f4ff"/>
    </linearGradient>
  </defs>
  <rect width="1024" height="1024" fill="url(#bg-stray-kids-felix)"/>
  <ellipse cx="512" cy="462" rx="240" ry="273" fill="#ffffff" opacity=".2"/>
  <circle cx="230" cy="165" r="-5" fill="#ef9a7c" opacity=".14"/><circle cx="-201" cy="184" r="4" fill="#ef9a7c" opacity=".14"/><circle cx="-60" cy="-103" r="-5" fill="#ef9a7c" opacity=".14"/><circle cx="88" cy="-43" r="1" fill="#ef9a7c" opacity=".14"/><circle cx="41" cy="-91" r="-3" fill="#ef9a7c" opacity=".14"/>
  <g transform="rotate(1.8 512 512)">
    <path d="M232 1024c24-172 81-287 169-346 35-24 76-36 121-36 93 0 164 48 213 143 32 63 53 143 63 239H232Z" fill="#201819"/>
    <path d="M521 260c88 0 151 57 169 151 15 77-2 148-51 212-33 43-78 64-136 64-57 0-103-22-137-66-46-60-58-133-36-220 24-94 88-141 191-141Z" fill="#201819"/>
    <path d="M374 393c18-94 73-147 164-160 87 12 144 61 171 147-57 0-112-20-164-59-47 44-104 68-171 72Z" fill="var(--hair)"/><path d="M465 249c38-39 83-48 136-27-20 34-57 55-112 62Z" fill="var(--hair)"/><path d="M382 482c-12 92 5 181 50 267" fill="none" stroke="var(--hair)" stroke-width="32" stroke-linecap="round"/><path d="M682 479c10 88-6 176-48 264" fill="none" stroke="var(--hair)" stroke-width="32" stroke-linecap="round"/>
    <path d="M414 368c42 48 100 78 174 91" fill="none" stroke="#ffffff" stroke-width="4" opacity="0.15"/>
    <circle cx="666" cy="548" r="28" fill="none" stroke="#ef9a7c" stroke-width="9" opacity=".78"/>
  </g>
</svg>
