<svg width="1024" height="1024" viewBox="0 0 1024 1024" xmlns="http://www.w3.org/2000/svg" role="img" aria-labelledby="title" style="--hair:#201819;--shade:#090b12">
  <title>Han original silhouette</title>
  <defs>
    <linearGradient id="bg-stray-kids-han" x1="0" y1="0" x2="1" y2="1">
      <stop offset="0" stop-color="#ffe7df"/>
      <stop offset="1" stop-color="#f2f4ff"/>
    </linearGradient>
  </defs>
  <rect width="1024" height="1024" fill="url(#bg-stray-kids-han)"/>
  <ellipse cx="512" cy="462" rx="253" ry="287" fill="#ffffff" opacity=".2"/>
  <circle cx="507" cy="344" r="5" fill="#ef9a7c" opacity=".14"/><circle cx="679" cy="274" r="7" fill="#ef9a7c" opacity=".14"/><circle cx="310" cy="270" r="12" fill="#ef9a7c" opacity=".14"/><circle cx="394" cy="611" r="8" fill="#ef9a7c" opacity=".14"/><circle cx="535" cy="396" r="13" fill="#ef9a7c" opacity=".14"/>
  <g transform="rotate(0 512 512)">
    <path d="M224 1024c13-166 57-283 132-351 34-31 77-45 130-42 87 5 154 49 200 132 35 64 58 151 70 261H224Z" fill="#201819"/>
    <path d="M536 278c-75-3-132 40-155 112-20 65-10 130 30 195 31 50 75 79 130 86 59 7 106-12 140-57 25-33 34-74 27-123 31-8 51-23 58-45 7-23-5-42-35-57-14-67-80-108-195-111Z" fill="#201819"/>
    <path d="M374 393c18-94 73-147 164-160 87 12 144 61 171 147-57 0-112-20-164-59-47 44-104 68-171 72Z" fill="var(--hair)"/><path d="M465 249c38-39 83-48 136-27-20 34-57 55-112 62Z" fill="var(--hair)"/><path d="M382 482c-12 92 5 181 50 267" fill="none" stroke="var(--hair)" stroke-width="32" stroke-linecap="round"/><path d="M682 479c10 88-6 176-48 264" fill="none" stroke="var(--hair)" stroke-width="32" stroke-linecap="round"/>
    <path d="M414 368c42 48 100 78 174 91" fill="none" stroke="#ffffff" stroke-width="4" opacity="0.19"/>
    <path d="M360 544c21 22 21 48 0 77" fill="none" stroke="#ef9a7c" stroke-width="10" stroke-linecap="round" opacity=".85"/>
  </g>
</svg>
