<svg width="1024" height="1024" viewBox="0 0 1024 1024" xmlns="http://www.w3.org/2000/svg" role="img" aria-labelledby="title" style="--hair:#201819;--shade:#090b12">
  <title>I.N original silhouette</title>
  <defs>
    <linearGradient id="bg-stray-kids-in" x1="0" y1="0" x2="1" y2="1">
      <stop offset="0" stop-color="#ffe7df"/>
      <stop offset="1" stop-color="#f2f4ff"/>
    </linearGradient>
  </defs>
  <rect width="1024" height="1024" fill="url(#bg-stray-kids-in)"/>
  <ellipse cx="512" cy="462" rx="248" ry="281" fill="#ffffff" opacity=".2"/>
  <circle cx="519" cy="597" r="11" fill="#ef9a7c" opacity=".14"/><circle cx="615" cy="526" r="10" fill="#ef9a7c" opacity=".14"/><circle cx="562" cy="548" r="12" fill="#ef9a7c" opacity=".14"/><circle cx="751" cy="366" r="10" fill="#ef9a7c" opacity=".14"/><circle cx="514" cy="538" r="13" fill="#ef9a7c" opacity=".14"/>
  <g transform="rotate(1.8 512 512)">
    <path d="M254 1024c25-171 86-284 182-337 31-18 67-27 108-27 96 0 169 46 219 138 35 65 58 141 69 226H254Z" fill="#201819"/>
    <path d="M512 252c92 0 158 60 178 158 17 83-2 157-55 223-33 41-75 61-126 61-54 0-98-22-132-66-48-63-61-138-37-226 26-100 83-150 172-150Z" fill="#201819"/>
    <path d="M363 407c14-103 73-163 177-178 85 11 139 68 162 172 10 74 2 145-24 214-53-2-99-21-139-57-43 38-92 58-148 59-33-66-42-136-28-210Z" fill="var(--hair)"/><path d="M385 439c45 23 96 20 153-9 45 35 93 51 143 48" fill="none" stroke="var(--shade)" stroke-width="5" opacity=".28"/>
    <path d="M414 368c42 48 100 78 174 91" fill="none" stroke="#ffffff" stroke-width="4" opacity="0.19"/>
    <circle cx="405" cy="360" r="20" fill="#ef9a7c" opacity=".78"/><path d="M392 359h26" stroke="#fff" stroke-width="5" stroke-linecap="round" opacity=".7"/>
  </g>
</svg>
