<svg width="1024" height="1024" viewBox="0 0 1024 1024" xmlns="http://www.w3.org/2000/svg" role="img" aria-labelledby="title" style="--hair:#171627;--shade:#090b12">
  <title>Giselle original silhouette</title>
  <defs>
    <linearGradient id="bg-aespa-giselle" x1="0" y1="0" x2="1" y2="1">
      <stop offset="0" stop-color="#e8f0ff"/>
      <stop offset="1" stop-color="#f1e4ff"/>
    </linearGradient>
  </defs>
  <rect width="1024" height="1024" fill="url(#bg-aespa-giselle)"/>
  <ellipse cx="512" cy="462" rx="227" ry="258" fill="#ffffff" opacity=".2"/>
  <circle cx="-248" cy="-175" r="-5" fill="#8fb5ff" opacity=".14"/><circle cx="-261" cy="242" r="4" fill="#8fb5ff" opacity=".14"/><circle cx="258" cy="32" r="-3" fill="#8fb5ff" opacity=".14"/><circle cx="-2" cy="18" r="-2" fill="#8fb5ff" opacity=".14"/><circle cx="-35" cy="96" r="-4" fill="#8fb5ff" opacity=".14"/>
  <g transform="rotate(3.6 512 512)">
    <path d="M287 1024c22-176 68-291 139-345 31-23 68-34 111-32 80 4 141 45 183 122 34 63 56 149 65 255H287Z" fill="#171627"/>
    <path d="M503 278c74-3 131 40 154 112 20 65 10 130-30 195-31 50-75 79-130 86-59 7-106-12-140-57-25-33-34-74-27-123-31-8-51-23-58-45-7-23 5-42 35-57 14-67 80-108 196-111Z" fill="#171627"/>
    <path d="M352 402c15-95 75-153 180-174 84 6 144 48 181 125-56 23-121 29-195 18-55 36-110 47-166 31Z" fill="var(--hair)"/><path d="M402 284c43 60 107 97 192 111" fill="none" stroke="var(--shade)" stroke-width="5" opacity=".32"/>
    <path d="M414 368c42 48 100 78 174 91" fill="none" stroke="#ffffff" stroke-width="4" opacity="0.15"/>
    <path d="M464 667l-44 30 49 13 42-33-47-10Zm94 0 44 30-49 13-42-33 47-10Z" fill="#8fb5ff" opacity=".72"/>
  </g>
</svg>
