<svg width="1024" height="1024" viewBox="0 0 1024 1024" xmlns="http://www.w3.org/2000/svg" role="img" aria-labelledby="title" style="--hair:#171627;--shade:#090b12">
  <title>Winter original silhouette</title>
  <defs>
    <linearGradient id="bg-aespa-winter" x1="0" y1="0" x2="1" y2="1">
      <stop offset="0" stop-color="#e8f0ff"/>
      <stop offset="1" stop-color="#f1e4ff"/>
    </linearGradient>
  </defs>
  <rect width="1024" height="1024" fill="url(#bg-aespa-winter)"/>
  <ellipse cx="512" cy="462" rx="235" ry="267" fill="#ffffff" opacity=".2"/>
  <circle cx="-212" cy="164" r="-5" fill="#8fb5ff" opacity=".14"/><circle cx="199" cy="-131" r="-5" fill="#8fb5ff" opacity=".14"/><circle cx="185" cy="-123" r="3" fill="#8fb5ff" opacity=".14"/><circle cx="248" cy="166" r="3" fill="#8fb5ff" opacity=".14"/><circle cx="-4" cy="211" r="-1" fill="#8fb5ff" opacity=".14"/>
  <g transform="rotate(5.4 512 512)">
    <path d="M206 1024c24-172 81-287 169-346 35-24 76-36 121-36 93 0 164 48 213 143 32 63 53 143 63 239H206Z" fill="#171627"/>
    <path d="M521 260c88 0 151 57 169 151 15 77-2 148-51 212-33 43-78 64-136 64-57 0-103-22-137-66-46-60-58-133-36-220 24-94 88-141 191-141Z" fill="#171627"/>
    <path d="M346 393c25-102 88-155 190-158 84 12 139 58 164 137-66-1-122-22-169-63-56 44-118 72-185 84Z" fill="var(--hair)"/><path d="M378 480c-17 82-7 158 30 230" fill="none" stroke="var(--hair)" stroke-width="35" stroke-linecap="round"/><path d="M673 479c20 79 12 154-24 224" fill="none" stroke="var(--hair)" stroke-width="35" stroke-linecap="round"/>
    <path d="M414 368c42 48 100 78 174 91" fill="none" stroke="#ffffff" stroke-width="4" opacity="0.10"/>
    <path d="M729 304l15 40 40 15-40 15-15 40-15-40-40-15 40-15 15-40Z" fill="#8fb5ff" opacity=".7"/>
  </g>
</svg>
