<svg width="1024" height="1024" viewBox="0 0 1024 1024" xmlns="http://www.w3.org/2000/svg" role="img" aria-labelledby="title">
  <title>Jin stylized silhouette</title>
  <defs>
    <linearGradient id="bg" x1="0" y1="0" x2="1" y2="1">
      <stop offset="0" stop-color="#f9d7e7"/>
      <stop offset="1" stop-color="#fdf1f7"/>
    </linearGradient>
    <linearGradient id="hair" x1="0" y1="0" x2="0" y2="1">
      <stop offset="0" stop-color="#3d3347"/>
      <stop offset="1" stop-color="#262431"/>
    </linearGradient>
  </defs>
  <rect width="1024" height="1024" fill="url(#bg)"/>
  <ellipse cx="520" cy="500" rx="258" ry="308" fill="#ffffff" opacity=".22"/>
  <path d="M290 1024c26-169 87-274 183-315h102c93 42 151 147 174 315H290Z" fill="#2c2835"/>
  <path d="M510 205c-104 0-182 80-197 193-15 111 7 213 32 317 14 59 46 89 96 89h174c48 0 78-30 91-88 25-111 43-219 18-323-27-114-104-188-214-188Z" fill="url(#hair)"/>
  <path d="M505 281c-49 18-86 65-102 137-9 41-6 81 9 121 18 47 49 82 92 105 44-20 76-54 96-102 18-44 22-88 10-133-17-64-52-107-105-128Z" fill="#f6dceb"/>
  <path d="M506 223c-88 42-131 108-130 198 56-13 104-47 144-101 35 44 85 77 150 98 0-91-54-172-164-195Z" fill="#382e41"/>
  <path d="M524 231c-11 111 20 212 92 302" fill="none" stroke="#1f1d29" stroke-width="5" opacity=".35"/>
  <path d="M390 430c-35 86-41 201-18 347" fill="none" stroke="#1f1d29" stroke-width="8" opacity=".32"/>
  <path d="M663 425c30 100 30 214 1 343" fill="none" stroke="#1f1d29" stroke-width="8" opacity=".3"/>
</svg>
